<svg xmlns="http://www.w3.org/2000/svg" viewBox="0 0 320 72" fill="none">
  <!-- Yellow dot -->
  <circle cx="10" cy="52" r="8" fill="#fdce0d"/>
  <!-- Chevron: dark navy top arm -->
  <path d="M18 8 C18 8 20 4 24 4 L28 4 C32 4 34 6 36 8 L56 28 C58 30 58 30 56 32 L38 50 C36 52 34 52 32 50 L18 36 C16 34 16 32 18 30 L32 16 C34 14 34 14 36 16 L44 24" stroke="none" fill="none"/>
  <path d="M20 6 L50 36 L34 52" stroke="#112033" stroke-width="14" stroke-linecap="round" stroke-linejoin="round" fill="none"/>
  <!-- Chevron: turquoise bottom arm -->
  <path d="M20 66 L50 36" stroke="#21b7b3" stroke-width="14" stroke-linecap="round" stroke-linejoin="round" fill="none"/>
  <!-- ABAS text -->
  <text x="78" y="34" font-family="Cabin, sans-serif" font-weight="700" font-size="32" fill="#112033" letter-spacing="3">ABAS</text>
  <!-- FORTERRO text -->
  <text x="78" y="62" font-family="Cabin, sans-serif" font-weight="700" font-size="24" fill="#112033" letter-spacing="3.5">FORTERRO</text>
</svg>
